<svg xmlns="http://www.w3.org/2000/svg">
  <symbol id="icon-vk" width="24" height="24" viewBox="0 0 24 24">
    <g clip-path="url(#a)">
      <path fill="currentColor" fill-rule="evenodd" clip-rule="evenodd"
            d="M23.45 5.95c.17-.55 0-.95-.8-.95h-2.62c-.67 0-.98.35-1.14.73 0 0-1.34 3.2-3.23 5.27-.61.6-.89.8-1.22.8-.17 0-.42-.2-.42-.74V5.95c0-.66-.18-.95-.74-.95H9.15c-.42 0-.67.3-.67.6 0 .61.95.76 1.05 2.5v3.8c0 .84-.16.99-.5.99-.88 0-3.05-3.21-4.33-6.89-.25-.71-.5-1-1.17-1H.9c-.75 0-.9.35-.9.73 0 .68.89 4.07 4.14 8.55C6.32 17.34 9.38 19 12.15 19c1.67 0 1.88-.37 1.88-1v-2.32c0-.73.16-.88.69-.88.38 0 1.05.2 2.61 1.67C19.11 18.22 19.4 19 20.41 19h2.62c.75 0 1.13-.37.91-1.1-.24-.72-1.09-1.77-2.21-3.02-.62-.7-1.54-1.47-1.81-1.86-.4-.49-.28-.7 0-1.14 0 0 3.2-4.43 3.53-5.93Z"/>
    </g>
    <defs>
      <clipPath id="a">
        <path d="M0 0h24v24H0z"/>
      </clipPath>
    </defs>
  </symbol>
  <symbol viewBox="0 0 24 24" id="icon-telegram" width="24" height="24">
    <path fill="currentColor"
          d="m22.44 4.62-3.17 14.95c-.24 1.05-.86 1.31-1.75.82l-4.83-3.56-2.33 2.24c-.25.26-.47.47-.97.47l.35-4.91 8.95-8.09c.39-.35-.09-.54-.6-.2L7.01 13.32l-4.76-1.49c-1.04-.32-1.05-1.03.22-1.53L21.1 3.11c.87-.32 1.62.2 1.34 1.51Z"/>
  </symbol>
  <symbol id="icon-youtube" width="24" height="24" viewBox="0 0 24 24">
    <path fill="currentColor"
          d="M19.18 5H4.81C3.31 5 2 6.3 2 7.8v8.3C2 17.7 3.3 19 4.81 19h14.37A2.8 2.8 0 0 0 22 16.2V7.8c.1-1.5-1.2-2.8-2.8-2.8ZM9.03 15.4V8.6l6.84 3.4-6.84 3.4Z"/>
  </symbol>
</svg>
